<?xml version="1.0" encoding="utf-8"?>
<!-- Generator: Adobe Illustrator 23.1.0, SVG Export Plug-In . SVG Version: 6.00 Build 0)  -->
<svg version="1.1"
	 id="svg2" xmlns:cc="http://creativecommons.org/ns#" xmlns:dc="http://purl.org/dc/elements/1.1/" xmlns:rdf="http://www.w3.org/1999/02/22-rdf-syntax-ns#" xmlns:svg="http://www.w3.org/2000/svg"
	 xmlns="http://www.w3.org/2000/svg" xmlns:xlink="http://www.w3.org/1999/xlink" x="0px" y="0px" viewBox="0 0 427.2 133.9"
	 style="enable-background:new 0 0 427.2 133.9;" xml:space="preserve">
<style type="text/css">
	.st0{fill:#231F20;}
	.st1{fill-rule:evenodd;clip-rule:evenodd;fill:#231F20;}
</style>
<g id="g10" transform="matrix(1.3333333,0,0,-1.3333333,0,133.93333)">
	<g id="g12" transform="scale(0.1)">
		<path id="path14" class="st0" d="M358.9,196.9C203.5,211.9,82.1,342.8,82.1,502.1c0,154.1,113.6,281.6,261.6,303.4
			c-0.1,10.2,0.1,21,0.8,32.4c1.2,19.3,3.6,37,6.5,52.9l-18-39.2c-24.4-3.9-47.9-10.3-70.4-18.8l-35.5,25.2l-65.4-37.8l4.1-43.4
			c-18.9-15.3-36.1-32.6-51.5-51.4L71,729.4L33.2,664l25.1-35.3c-8.6-22.5-15.1-46.1-19-70.6L0,540v-0.4v-75.2v-0.4l39.2-18
			c3.9-24.4,10.3-47.9,18.8-70.4l-25.2-35.5l37.8-65.4l43.4,4.1c15.3-18.9,32.6-36.1,51.4-51.5l-4.1-43.3l65.4-37.8l35.3,25.1
			c22.6-8.7,46.3-15.1,70.9-19l18-39.2c3,16.6,5.5,35,6.8,54.9C358.5,178,358.8,187.6,358.9,196.9"/>
		<path id="path16" class="st0" d="M426.6,113.1l18,39.2c24.6,3.9,48.4,10.4,71,19.1l34.9-24.7l65.4,37.8l-4,42.7
			c19.1,15.5,36.5,32.9,51.9,52l42.8-4l37.8,65.4l-24.9,35.1c8.6,22.5,15,46.1,18.9,70.5l39.2,18v0.4v75.2v0.4l-39.3,18
			c-3.9,24.5-10.4,48.1-19,70.6l24.7,34.9L706.3,729l-42.7-4c-15.5,19.1-32.9,36.5-52,51.9l4,42.8l-65.4,37.8l-35.1-24.9
			c-22.5,8.6-46.1,15-70.5,18.9l-18,39.2c-2.2-14.6-4-30.1-5.3-46.6c-1-12.8-1.6-25.1-1.8-36.9c155-15.4,276.1-146.1,276.1-305.1
			c0-153.9-113.3-281.2-261-303.3c0.1-12-0.3-25-1.5-38.9C431.6,142.8,429.3,127.2,426.6,113.1"/>
		<path id="path18" class="st0" d="M358.1,607.8l57.2-56.5c-1.4,40.4-2.7,56.1-3.9,95h-55.3C356.8,625.7,357.4,629,358.1,607.8"/>
		<path id="path20" class="st0" d="M368.1,502.2l-7.4,7.8c0.4-11.2,0.8-3.1,1.2-14.3L368.1,502.2"/>
		<path id="path22" class="st0" d="M417.6,455.2l-53.5-52.8c0.8-23.1,1.5-21.8,2.1-44.5h55.3C420.4,397.9,419,414.4,417.6,455.2"/>
		<path id="path24" class="st0" d="M354.9,713.1h55.3c-0.4,17.9-0.8,25.9-1.1,43.1c-1.6,92.6,2.9,136.1,20,163.6
			c9.4,17.6,21.5,25.4,35.6,25.7c7,0.1,16.7-1.9,23.8-3.9l8.7,57.1c-8.8,3.1-22.1,6.1-34.3,5.9c-26.3-0.5-52.4-12.9-71.3-39.4
			c-30-41.9-39.6-93.4-37.7-203.4C353.9,742.8,354.4,733,354.9,713.1"/>
		<path id="path26" class="st0" d="M422.8,291.1h-55.3c0.5-20.2,0.9-30.3,1.3-49.8c1.8-101.3-6.5-133.9-20.9-160.3
			c-8.5-15.4-21.6-22.2-33.8-22.4c-7-0.1-16.7,1.9-23.8,3.9l-9.6-53.3c8-5.3,22.1-9.4,37.9-9.1c34.2,0.6,58.5,17.4,75.5,49.2
			c20.4,36.3,31.9,84.1,30,194.1C423.8,262.1,423.3,271.6,422.8,291.1"/>
		<path id="path28" class="st0" d="M450.4,502L294.5,348.1h151.1c7.7,0,28.6,1.6,35,4.2c6.8,2.7,11.9,6.1,17.3,11.5
			c5.8,5.8,10.6,11.4,14,19.1c3.5,7.9,9,22,9.3,30.8l30-0.2l-12.6-112.9H226.7v47.5L377.8,502L226.5,655.9v47.3h312l12.6-113.1h-30
			c-1.4,4.4-8.4,30.4-20.2,44.1c-11.8,13.8-25.4,17.5-35.1,19.5c-4.4,0.9-10.1,1.5-17,1.7c-7,0.3-14.1,0.4-21.4,0.4H294.5L450.4,502
			"/>
		<path id="path30" class="st0" d="M1267.5,658.7v109c0,4.3,0.2,9.9,0.4,13.8c-2.3-3.7-5.8-9-9-12.9l-49.8-62.9h-4.1l-49.1,62.9
			c-3.2,3.9-6.8,9.2-9.2,12.9c0.3-4,0.6-9.5,0.6-13.8v-109H1128v167.6h4.3l75.2-94.1l74.8,94.1h4.5V658.7H1267.5"/>
		<path id="path32" class="st0" d="M1288,827.6h-6.3l-0.8-0.9l-73.4-92.4l-73.9,92.4l-0.8,0.9h-1.2h-2.4h-2.5v-2.5V659.9v-2.5h2.5
			h16.8h2.5v2.5v107.8c0,2.8-0.1,6.2-0.3,9.2c2.1-3,4.4-6.4,6.7-9.1l48.7-62.4l0.8-1h1.2h2.9h1.2l0.8,0.9l49.4,62.4
			c2.2,2.7,4.6,6.1,6.6,9.1c-0.1-3.1-0.2-6.4-0.2-9.3V659.9v-2.5h2.5h16.8h2.5v2.5v165.1L1288,827.6L1288,827.6z M1285.5,825.1
			V659.9h-16.8v107.8c0,7.4,0.7,18.7,0.7,18.7s-6.2-10.6-11.5-17l-49.4-62.4h-2.9l-48.7,62.4c-5.3,6.5-11.8,17-11.8,17
			s1-11.3,1-18.7V659.9h-16.8v165.1h2.4l75.8-94.8l75.4,94.8H1285.5"/>
		<path id="path34" class="st0" d="M1328.6,658.7v165.7h101.9v-17.9h-82.1v-74.1h73.2v-17.6h-73.2v-38.3h85.4v-17.9H1328.6"/>
		<path id="path36" class="st0" d="M1431.8,825.6h-104.4V657.4h107.7v2.5v15.4v2.5h-2.5h-82.9v35.8h70.7h2.5v2.5v15.1v2.5h-2.5
			h-70.7v71.6h79.6h2.5v2.5v15.4L1431.8,825.6L1431.8,825.6z M1429.3,823.1v-15.4h-82.1v-76.6h73.2v-15.1h-73.2v-40.8h85.4v-15.4
			h-102.7v163.2H1429.3"/>
		<path id="path38" class="st0" d="M1568.2,658.7l-41.9,65.9c-1.6,2.6-3.3,6.2-4.4,8.8c-1-2.5-2.4-6.1-4.1-8.7l-41.7-65.9h-21.9
			l56.7,90.1l-47.8,75.7h22.6l32.8-51.5c1.6-2.6,3.1-6,4.2-8.5c1,2.5,2.5,6,4.1,8.5l32.5,51.5h21.9l-47.6-75.7l57.2-90.1
			L1568.2,658.7"/>
		<path id="path40" class="st0" d="M1583.5,825.6h-24.9l-0.7-1.2l-32.2-50.9c-1.1-1.7-2.2-3.9-3-5.9c-0.9,2-2,4.1-3,5.9l-32.4,50.9
			l-0.7,1.2h-1.4h-19.7h-4.5l2.4-3.8l46.2-73.1l-55.1-87.5l-2.4-3.8h4.5h19h1.4l0.7,1.2l41.3,65.3c1.1,1.8,2.2,4.1,3.1,6.2
			c1-2.1,2.1-4.4,3.2-6.2l41.6-65.3l0.7-1.2h1.4h19.7h4.6l-2.4,3.8l-55.6,87.5l46,73.1L1583.5,825.6L1583.5,825.6z M1579,823.1
			l-46.8-74.4l56.4-88.8h-19.7l-41.5,65.3c-2.7,4.3-5.5,11.5-5.5,11.5s-2.4-7.2-5-11.5l-41.3-65.3h-19l55.9,88.8l-47,74.4h19.7
			l32.4-50.9c2.6-4.3,5.3-11.3,5.3-11.3s2.4,7.2,5,11.3l32.2,50.9H1579"/>
		<path id="path42" class="st0" d="M1712.2,703.4l-28.1,70.8c-1.9,4.8-3.9,11.2-5.1,15.4c-1.3-4.2-3.3-10.6-5.3-15.4l-28.1-70.8
			L1712.2,703.4z M1730.5,658.7l-11,27.4h-80.9l-10.8-27.4h-19.8l68.7,167.4h4.6l70.2-167.4H1730.5"/>
		<path id="path44" class="st0" d="M1647.4,704.7l27.4,69.1c1.4,3.5,2.9,7.9,4.1,11.6c1.1-3.7,2.6-8,4-11.6l27.4-69L1647.4,704.7
			L1647.4,704.7z M1682.1,827.3h-6.2l-0.6-1.5l-67.7-164.9l-1.4-3.4h3.7h17.1h1.7l0.6,1.6l10.2,25.8h79.2l10.4-25.8l0.6-1.6h1.7
			h18.3h3.8l-1.5,3.5l-69.1,164.9L1682.1,827.3L1682.1,827.3z M1643.8,702.2h70.3l-28.8,72.5c-3.1,7.7-6.2,19.4-6.2,19.4
			s-3.4-11.8-6.5-19.4L1643.8,702.2 M1680.5,824.8l69.1-164.9h-18.3l-11,27.4h-82.6l-10.8-27.4h-17.1l67.7,164.9H1680.5"/>
		<path id="path46" class="st0" d="M1880.4,658.7v55.4h-84.9v-55.4h-19.8v165.7h19.8v-91.9h84.9v91.9h19.8V658.7H1880.4"/>
		<path id="path48" class="st0" d="M1901.4,825.6h-22.3v-91.9h-82.4v89.4v2.5h-2.5H1777h-2.5v-2.5V659.9v-2.5h2.5h17.3h2.5v2.5v52.9
			h82.4v-52.9v-2.5h2.5h17.3h2.5v2.5v163.2V825.6z M1898.9,823.1V659.9h-17.3v55.4h-87.4v-55.4H1777v163.2h17.3v-91.9h87.4v91.9
			H1898.9"/>
		<path id="path50" class="st0" d="M1941.9,657v167.4h18.6V713c0-4.2-0.4-10-0.8-14c2.4,3.3,5.9,8.1,8.6,11.4l97.8,115.7h4.7V658.7
			h-18.8v111.4c0,4.2,0.5,9.8,0.9,13.8c-2.4-3.3-5.9-8-8.5-11.3L1946.6,657L1941.9,657"/>
		<path id="path52" class="st0" d="M2072.1,827.3h-6.5l-0.8-0.9l-97.5-115.2c-1.9-2.3-4.1-5.2-6.1-7.9c0.2,3.2,0.4,6.8,0.4,9.7
			v110.2v2.5h-2.5h-16.1h-2.5v-2.5V658.2v-2.5h2.5h2.9h1.2l0.8,0.9l97.4,115.2c1.8,2.2,4,5.1,5.9,7.7c-0.3-3.2-0.5-6.6-0.5-9.4
			V659.9v-2.5h2.5h16.3h2.5v2.5v164.9L2072.1,827.3L2072.1,827.3z M2069.6,824.8V659.9h-16.3v110.2c0,7,1.4,18.5,1.4,18.5
			s-6.7-9.6-11.3-15.1L1946,658.2h-2.9v164.9h16.1V713c0-7-1.2-18.5-1.2-18.5s6.7,9.6,11.3,15.1l97.5,115.2H2069.6"/>
		<path id="path54" class="st0" d="M2207.1,658.7l-56.3,71l-18.7-22.6l0.3-48.5h-19.8v165.7h19.8v-78.5c0-5.2-0.4-11.3-0.9-16.2
			c2.7,4.9,6.3,11.4,8.9,14.8l62.1,79.9h22.6l-61.4-80l68-85.7L2207.1,658.7"/>
		<path id="path56" class="st0" d="M2227.7,825.6h-25.7l-0.8-1l-61.7-79.4c-1.8-2.4-4.1-6.2-6.3-10c0.2,3.5,0.4,7.2,0.4,10.6v77.3
			v2.5h-2.5h-17.3h-2.5v-2.5V659.9v-2.5h2.5h17.3h2.5v2.5V707l17.1,20.7l55-69.3l0.8-0.9h1.2h21.4h5.2l-3.2,4.1l-65.8,83l59.3,77.2
			C2224.6,821.6,2227.7,825.6,2227.7,825.6z M2222.6,823.1l-60.5-78.7l67-84.5h-21.4l-56.9,71.8l-19.7-23.8v-48h-17.3v163.2h17.3
			v-77.3c0-7.7-1-17-1.4-22.3c3.6,7,8.6,16.1,11.8,20.2l61.7,79.4H2222.6"/>
		<path id="path58" class="st0" d="M2321.8,808.2c-37.4,0-64.5-28-64.5-66.7c0-38.6,27.1-66.7,64.5-66.7c37.5,0,64.8,28,64.8,66.7
			C2386.6,780.2,2359.4,808.2,2321.8,808.2z M2321.8,656.8c-48.5,0-85,36.4-85,84.8c0,48.3,36.6,84.8,85,84.8
			c48.6,0,85.3-36.4,85.3-84.8C2407.1,693.2,2370.4,656.8,2321.8,656.8"/>
		<path id="path60" class="st0" d="M2321.8,676.1c-36.7,0-63.3,27.5-63.3,65.4c0,37.9,26.6,65.4,63.3,65.4
			c36.8,0,63.5-27.5,63.5-65.4C2385.3,703.6,2358.6,676.1,2321.8,676.1z M2321.8,827.6c-49.2,0-86.3-37-86.3-86
			c0-49,37.1-86,86.3-86c49.3,0,86.5,37,86.5,86C2408.3,790.6,2371.1,827.6,2321.8,827.6z M2321.8,673.6c38.2,0,66,29,66,67.9
			c0,38.9-27.8,67.9-66,67.9c-37.9,0-65.8-29-65.8-67.9C2256.1,702.7,2283.9,673.6,2321.8,673.6 M2321.8,825.1
			c46.6,0,84-34.3,84-83.5c0-49.2-37.4-83.5-84-83.5c-46.3,0-83.8,34.3-83.8,83.5C2238.1,790.7,2275.5,825.1,2321.8,825.1"/>
		<path id="path62" class="st0" d="M2435.2,706.7v17.6h75.7v-17.6H2435.2"/>
		<path id="path64" class="st0" d="M2512.1,725.6h-78.2v-20.1h78.2v2.5v15.1C2512.1,723.1,2512.1,725.6,2512.1,725.6z M2509.6,723.1
			v-15.1h-73.2v15.1L2509.6,723.1"/>
		<path id="path66" class="st0" d="M1267.5,418.7v109c0,4.3,0.2,9.9,0.4,13.8c-2.3-3.7-5.8-9-9-12.9l-49.8-62.9h-4.1l-49.1,62.9
			c-3.2,3.9-6.8,9.2-9.2,12.9c0.3-4,0.6-9.5,0.6-13.8v-109H1128v167.6h4.3l75.2-94.1l74.8,94.1h4.5V418.7H1267.5"/>
		<path id="path68" class="st0" d="M1288,587.6h-6.3l-0.8-0.9l-73.4-92.4l-73.9,92.4l-0.8,0.9h-1.2h-2.4h-2.5v-2.5V419.9v-2.5h2.5
			h16.8h2.5v2.5v107.8c0,2.8-0.1,6.2-0.3,9.2c2.1-3,4.4-6.4,6.7-9.1l48.7-62.4l0.8-1h1.2h2.9h1.2l0.8,0.9l49.4,62.4
			c2.2,2.7,4.6,6.1,6.6,9.1c-0.1-3.1-0.2-6.4-0.2-9.3V419.9v-2.5h2.5h16.8h2.5v2.5v165.1L1288,587.6L1288,587.6z M1285.5,585.1
			V419.9h-16.8v107.8c0,7.4,0.7,18.7,0.7,18.7s-6.2-10.6-11.5-17l-49.4-62.4h-2.9l-48.7,62.4c-5.3,6.5-11.8,17-11.8,17
			s1-11.3,1-18.7V419.9h-16.8v165.1h2.4l75.8-94.8l75.4,94.8H1285.5"/>
		<path id="path70" class="st0" d="M1415.3,463.4l-28.1,70.8c-1.9,4.8-3.9,11.2-5.1,15.4c-1.3-4.2-3.3-10.6-5.3-15.4l-28.1-70.8
			L1415.3,463.4z M1433.6,418.7l-11,27.4h-80.9l-10.8-27.4h-19.8l68.7,167.4h4.6l70.2-167.4L1433.6,418.7"/>
		<path id="path72" class="st0" d="M1350.5,464.7l27.4,69.1c1.4,3.5,2.9,7.9,4.1,11.6c1.1-3.7,2.6-8,4-11.6l27.4-69L1350.5,464.7
			L1350.5,464.7z M1385.2,587.3h-6.2l-0.6-1.5l-67.7-164.9l-1.4-3.4h3.7h17h1.7l0.6,1.6l10.2,25.8h79.2l10.4-25.8l0.6-1.6h1.7h18.2
			h3.8l-1.4,3.5l-69.1,164.9C1385.9,585.8,1385.2,587.3,1385.2,587.3z M1346.8,462.2h70.3l-28.8,72.5c-3.1,7.7-6.2,19.4-6.2,19.4
			s-3.4-11.8-6.5-19.4L1346.8,462.2 M1383.6,584.8l69.1-164.9h-18.2l-11,27.4h-82.6l-10.8-27.4h-17l67.7,164.9H1383.6"/>
		<path id="path74" class="st0" d="M1496.2,418.7v147.9H1446v17.9h120.1v-17.9H1516V418.7H1496.2"/>
		<path id="path76" class="st0" d="M1567.4,585.6h-122.6v-20.4h50.2V419.9v-2.5h2.5h17.3h2.5v2.5v145.4h47.7h2.5v2.5v15.4
			L1567.4,585.6L1567.4,585.6z M1564.9,583.1v-15.4h-50.2V419.9h-17.3v147.9h-50.2v15.4H1564.9"/>
		<path id="path78" class="st0" d="M1590.4,418.7v165.7h101.9v-17.9h-82.1v-74.1h73.2v-17.6h-73.2v-38.3h85.4v-17.9L1590.4,418.7"/>
		<path id="path80" class="st0" d="M1693.5,585.6h-104.4V417.4h107.7v2.5v15.4v2.5h-2.5h-82.9v35.8h70.7h2.5v2.5v15.1v2.5h-2.5
			h-70.7v71.6h79.6h2.5v2.5v15.4V585.6z M1691,583.1v-15.4h-82.1v-76.6h73.2v-15.1h-73.2v-40.8h85.4v-15.4h-102.7v163.2H1691"/>
		<path id="path82" class="st0" d="M1862.4,418.7v109c0,4.3,0.2,9.9,0.4,13.8c-2.3-3.7-5.8-9-9-12.9l-49.8-62.9h-4.1l-49.1,62.9
			c-3.2,3.9-6.8,9.2-9.2,12.9c0.3-4,0.6-9.5,0.6-13.8v-109h-19.3v167.6h4.3l75.2-94.1l74.8,94.1h4.5V418.7H1862.4"/>
		<path id="path84" class="st0" d="M1882.9,587.6h-6.3l-0.8-0.9l-73.4-92.4l-73.9,92.4l-0.8,0.9h-1.2h-2.4h-2.5v-2.5V419.9v-2.5h2.5
			h16.8h2.5v2.5v107.8c0,2.8-0.1,6.2-0.3,9.2c2.1-3,4.4-6.4,6.7-9.1l48.7-62.4l0.8-1h1.2h2.9h1.2l0.8,0.9l49.4,62.4
			c2.2,2.7,4.6,6.1,6.6,9.1c-0.1-3.1-0.2-6.4-0.2-9.3V419.9v-2.5h2.5h16.8h2.5v2.5v165.1V587.6z M1880.4,585.1V419.9h-16.8v107.8
			c0,7.4,0.7,18.7,0.7,18.7s-6.2-10.6-11.5-17l-49.4-62.4h-2.9l-48.7,62.4c-5.3,6.5-11.8,17-11.8,17s1-11.3,1-18.7V419.9h-16.8
			v165.1h2.4l75.8-94.8l75.4,94.8H1880.4"/>
		<path id="path86" class="st0" d="M2010.2,463.4l-28.1,70.8c-1.9,4.8-3.9,11.2-5.1,15.4c-1.3-4.2-3.3-10.6-5.3-15.4l-28.1-70.8
			L2010.2,463.4z M2028.5,418.7l-11,27.4h-80.9l-10.8-27.4H1906l68.7,167.4h4.6l70.2-167.4L2028.5,418.7"/>
		<path id="path88" class="st0" d="M1945.4,464.7l27.4,69.1c1.4,3.5,2.9,7.9,4.1,11.6c1.1-3.7,2.6-8,4-11.6l27.4-69L1945.4,464.7
			L1945.4,464.7z M1980.1,587.3h-6.2l-0.6-1.5l-67.7-164.9l-1.4-3.4h3.7h17h1.7l0.6,1.6l10.2,25.8h79.2L2027,419l0.6-1.6h1.7h18.3
			h3.8l-1.4,3.5l-69.1,164.9L1980.1,587.3L1980.1,587.3z M1941.8,462.2h70.3l-28.8,72.5c-3.1,7.7-6.2,19.4-6.2,19.4
			s-3.4-11.8-6.5-19.4L1941.8,462.2 M1978.5,584.8l69.1-164.9h-18.3l-11,27.4h-82.6l-10.8-27.4h-17l67.7,164.9H1978.5"/>
		<path id="path90" class="st0" d="M2091.1,418.7v147.9h-50.2v17.9H2161v-17.9h-50.2V418.7H2091.1"/>
		<path id="path92" class="st0" d="M2162.3,585.6h-122.6v-20.4h50.2V419.9v-2.5h2.5h17.3h2.5v2.5v145.4h47.7h2.5v2.5v15.4V585.6z
			 M2159.8,583.1v-15.4h-50.2V419.9h-17.3v147.9h-50.2v15.4H2159.8"/>
		<path id="path94" class="st0" d="M2185.3,417v167.4h18.6V473c0-4.2-0.4-10-0.8-14c2.4,3.3,5.9,8.1,8.6,11.4l97.8,115.7h4.7V418.7
			h-18.8v111.4c0,4.2,0.5,9.8,0.9,13.8c-2.4-3.3-5.9-8-8.5-11.3L2190,417H2185.3"/>
		<path id="path96" class="st0" d="M2315.5,587.3h-6.5l-0.7-0.9l-97.5-115.2c-1.9-2.3-4.1-5.2-6.1-7.9c0.2,3.2,0.4,6.8,0.4,9.7
			v110.2v2.5h-2.5h-16.1h-2.5v-2.5V418.2v-2.5h2.5h2.9h1.2l0.8,0.9l97.4,115.2c1.8,2.2,4,5.1,5.9,7.7c-0.3-3.2-0.5-6.6-0.5-9.4
			V419.9v-2.5h2.5h16.3h2.5v2.5v164.9L2315.5,587.3L2315.5,587.3z M2313,584.8V419.9h-16.3v110.2c0,7,1.4,18.5,1.4,18.5
			s-6.7-9.6-11.3-15.1l-97.4-115.2h-2.9v164.9h16.1V473c0-7-1.2-18.5-1.2-18.5s6.7,9.6,11.3,15.1l97.4,115.2L2313,584.8"/>
		<path id="path98" class="st0" d="M2431.1,418.7v40.6h-18.4c-42.7,0-68.9,23.2-70,62.1c-0.3,11.9,0,61.3,0,61.8l0,1.2h18.5
			l-0.4-61.7c1-29.1,20.3-45.8,52.8-45.8h17.5v107.5h19.8V418.7H2431.1"/>
		<path id="path100" class="st0" d="M2452.1,585.6h-22.3V478.1h-16.2c-32.2,0-50.5,15.9-51.6,44.7l0.4,60.3l0,2.5h-2.5h-16h-2.5
			l0-2.5c0-0.5-0.3-49.9,0-61.8c1.1-39.6,27.8-63.3,71.2-63.3h17.2v-38.1v-2.5h2.5h17.3h2.5v2.5v163.2L2452.1,585.6L2452.1,585.6z
			 M2449.6,583.1V419.9h-17.3v40.6h-19.7c-44.6,0-67.7,25.3-68.7,60.9c-0.4,12,0,61.8,0,61.8h16l-0.4-60.4
			c1-26.9,17.3-47.1,54.1-47.1h18.7v107.5L2449.6,583.1"/>
		<path id="path102" class="st0" d="M2478.1,418.7v165.7h101.9v-17.9h-82.1v-74.1h73.2v-17.6h-73.2v-38.3h85.4v-17.9L2478.1,418.7"
			/>
		<path id="path104" class="st0" d="M2581.2,585.6h-104.4V417.4h107.7v2.5v15.4v2.5h-2.5h-82.9v35.8h70.7h2.5v2.5v15.1v2.5h-2.5
			h-70.7v71.6h79.6h2.5v2.5v15.4L2581.2,585.6L2581.2,585.6z M2578.7,583.1v-15.4h-82.1v-76.6h73.2v-15.1h-73.2v-40.8h85.4v-15.4
			h-102.7v163.2H2578.7"/>
		<path id="path106" class="st0" d="M2684.7,416.8c-48.5,0-85,36.4-85,84.8c0,48.3,36.6,84.8,85,84.8c29,0,51.8-11.1,65.8-32.2
			l0.7-1L2736,542l-0.7,1.1c-11,16.2-28.9,25.1-50.6,25.1c-37.4,0-64.5-28-64.5-66.7c0-38.6,27.1-66.7,64.5-66.7
			c22.4,0,40.6,9.3,52.7,26.8l0.7,1l15.5-10.8l-0.7-1C2737.9,428.9,2713.7,416.8,2684.7,416.8"/>
		<path id="path108" class="st0" d="M2684.7,587.6c-49.2,0-86.3-37-86.3-86c0-49,37.1-86,86.3-86c29.4,0,54,12.3,69.3,34.7l1.4,2
			l-2,1.4l-13.4,9.4l-2.1,1.4l-1.4-2.1c-11.9-17.2-29.7-26.3-51.7-26.3c-36.7,0-63.3,27.5-63.3,65.4c0,37.9,26.6,65.4,63.3,65.4
			c21.2,0,38.8-8.7,49.5-24.6l1.4-2.1l2.1,1.5l13.2,9.6l1.9,1.4l-1.3,2C2737.3,576.2,2714.1,587.6,2684.7,587.6L2684.7,587.6z
			 M2684.7,585.1c28.8,0,50.9-10.8,64.8-31.7l-13.2-9.6c-10.6,15.6-28.1,25.7-51.6,25.7c-38.2,0-65.8-29-65.8-67.9
			c0-38.9,27.6-67.9,65.8-67.9c23.8,0,42,10.3,53.8,27.4l13.4-9.4c-14.4-21.1-37.9-33.6-67.2-33.6c-46.3,0-83.8,34.3-83.8,83.5
			C2600.9,550.7,2638.4,585.1,2684.7,585.1"/>
		<path id="path110" class="st0" d="M2875.2,418.7l-56.3,71l-18.7-22.6l0.3-48.5h-19.8v165.7h19.8v-78.5c0-5.2-0.4-11.3-0.9-16.2
			c2.7,4.9,6.3,11.4,8.9,14.8l62.1,79.9h22.6l-61.4-80l68-85.7H2875.2"/>
		<path id="path112" class="st0" d="M2895.8,585.6H2870l-0.8-1l-61.7-79.4c-1.8-2.4-4.1-6.2-6.3-10c0.2,3.5,0.4,7.2,0.4,10.6v77.3
			v2.5h-2.5H2782h-2.5v-2.5V419.9v-2.5h2.5h17.3h2.5v2.5V467l17.1,20.7l55-69.3l0.8-0.9h1.2h21.4h5.2l-3.2,4.1l-65.8,83l59.3,77.2
			L2895.8,585.6z M2890.7,583.1l-60.5-78.7l67-84.5h-21.4l-56.9,71.8l-19.7-23.8v-48H2782v163.2h17.3v-77.3c0-7.7-1-17-1.4-22.3
			c3.6,7,8.6,16.1,11.8,20.2l61.7,79.4H2890.7"/>
		<path id="path114" class="st0" d="M2912.9,417v167.4h18.6V473c0-4.2-0.4-10-0.8-14c2.4,3.3,5.9,8.1,8.6,11.4l97.8,115.7h4.7V418.7
			h-18.8v111.4c0,4.2,0.5,9.8,0.9,13.8c-2.4-3.3-5.9-8-8.5-11.3L2917.6,417L2912.9,417"/>
		<path id="path116" class="st0" d="M3043.2,587.3h-6.5l-0.8-0.9l-97.4-115.2c-1.9-2.3-4.1-5.2-6.1-7.9c0.2,3.3,0.4,6.8,0.4,9.7
			v110.2v2.5h-2.5h-16.1h-2.5v-2.5V418.2v-2.5h2.5h2.9h1.2l0.8,0.9l97.5,115.2c1.8,2.2,4,5.1,5.9,7.7c-0.3-3.2-0.5-6.6-0.5-9.4
			V419.9v-2.5h2.5h16.3h2.5v2.5v164.9L3043.2,587.3L3043.2,587.3z M3040.7,584.8V419.9h-16.3v110.2c0,7,1.4,18.5,1.4,18.5
			s-6.7-9.6-11.3-15.1l-97.5-115.2h-2.9v164.9h16.1V473c0-7-1.2-18.5-1.2-18.5s6.7,9.6,11.3,15.1l97.4,115.2L3040.7,584.8"/>
		<path id="path118" class="st0" d="M3073.7,417v167.4h18.6V473c0-4.2-0.4-10-0.8-14c2.4,3.3,5.9,8.1,8.6,11.4l97.8,115.7h4.7V418.7
			h-18.8v111.4c0,4.2,0.5,9.8,0.9,13.8c-2.4-3.3-5.9-8-8.5-11.3L3078.4,417L3073.7,417"/>
		<path id="path120" class="st0" d="M3203.9,587.3h-6.5l-0.8-0.9l-97.4-115.2c-1.9-2.3-4.1-5.2-6.1-7.9c0.2,3.3,0.4,6.8,0.4,9.7
			v110.2v2.5h-2.5h-16.1h-2.5v-2.5V418.2v-2.5h2.5h2.9h1.2l0.8,0.9l97.4,115.2c1.8,2.2,4,5.1,5.9,7.7c-0.3-3.2-0.5-6.6-0.5-9.4
			V419.9v-2.5h2.5h16.3h2.5v2.5v164.9L3203.9,587.3L3203.9,587.3z M3201.4,584.8V419.9h-16.3v110.2c0,7,1.4,18.5,1.4,18.5
			s-6.7-9.6-11.3-15.1l-97.4-115.2h-2.9v164.9h16.1V473c0-7-1.2-18.5-1.2-18.5s6.7,9.6,11.3,15.1l97.4,115.2L3201.4,584.8"/>
		<path id="path122" class="st1" d="M3138.5,567.6c-9.3,0-17.7,5.5-22.4,14.8l-0.9,1.8h45.7l-0.7-1.7
			C3156.4,573.3,3148.1,567.6,3138.5,567.6"/>
		<path id="path124" class="st0" d="M3162.8,585.5h-49.6l1.9-3.6c4.9-9.7,13.7-15.5,23.5-15.5c10.1,0,18.8,6,22.9,15.6L3162.8,585.5
			z M3159.1,583c-3.8-9.2-12.1-14.1-20.5-14.1c-8.1,0-16.4,4.5-21.3,14.1H3159.1"/>
		<path id="path126" class="st0" d="M1197.7,326.5c-32.6,0-49.2-15.1-49.2-44.8s16.5-44.8,49.2-44.8h17.5v89.7H1197.7z
			 M1252.4,236.9c32.6,0,49.2,15.1,49.2,44.8s-16.5,44.8-49.2,44.8h-17.5v-89.7H1252.4z M1215.1,178.7v40.6h-18.4
			c-43,0-68.7,23.4-68.7,62.5c0,39.3,25.7,62.7,68.7,62.7h56.7c43,0,68.7-23.4,68.7-62.7c0-39.1-25.7-62.5-68.7-62.5h-18.4v-40.6
			L1215.1,178.7"/>
		<path id="path128" class="st0" d="M1197.7,238.1c-31.8,0-47.9,14.7-47.9,43.6c0,28.9,16.1,43.6,47.9,43.6h16.2v-87.2
			C1213.9,238.1,1197.7,238.1,1197.7,238.1z M1236.2,325.3h16.2c31.8,0,47.9-14.7,47.9-43.6c0-28.9-16.1-43.6-47.9-43.6h-16.2V325.3
			z M1253.3,345.6h-56.7c-43.8,0-69.9-23.9-69.9-63.9c0-39.9,26.2-63.7,69.9-63.7h17.2v-38.1v-2.5h2.5h17.3h2.5v2.5V218h17.2
			c43.8,0,69.9,23.8,69.9,63.7C1323.3,321.7,1297.1,345.6,1253.3,345.6L1253.3,345.6z M1197.7,235.6h18.7v92.2h-18.7
			c-36.7,0-50.4-19.2-50.4-46.1C1147.3,254.8,1160.9,235.6,1197.7,235.6 M1233.7,235.6h18.7c36.7,0,50.4,19.2,50.4,46.1
			c0,26.9-13.7,46.1-50.4,46.1h-18.7V235.6 M1253.3,343.1c44.6,0,67.4-24.7,67.4-61.4c0-36-22.8-61.2-67.4-61.2h-19.7v-40.6h-17.3
			v40.6h-19.7c-44.6,0-67.4,25.2-67.4,61.2c0,36.7,22.8,61.4,67.4,61.4h19.7h17.3H1253.3"/>
		<path id="path130" class="st0" d="M1430.4,223.4l-28.1,70.8c-1.9,4.8-3.9,11.2-5.1,15.4c-1.3-4.2-3.3-10.6-5.3-15.4l-28.1-70.8
			H1430.4z M1448.7,178.7l-11,27.4h-80.9l-10.8-27.4h-19.8l68.7,167.4h4.6l70.2-167.4L1448.7,178.7"/>
		<path id="path132" class="st0" d="M1365.6,224.7l27.4,69.1c1.4,3.5,2.9,7.9,4.1,11.6c1.1-3.7,2.6-8,4-11.6l27.4-69H1365.6
			L1365.6,224.7z M1400.3,347.3h-6.2l-0.6-1.5l-67.7-164.9l-1.4-3.4h3.7h17.1h1.7l0.6,1.6l10.2,25.8h79.2l10.4-25.8l0.6-1.6h1.7
			h18.3h3.8l-1.5,3.5l-69.1,164.9L1400.3,347.3L1400.3,347.3z M1361.9,222.2h70.3l-28.8,72.5c-3.1,7.7-6.2,19.4-6.2,19.4
			s-3.4-11.8-6.5-19.4L1361.9,222.2 M1398.6,344.8l69.1-164.9h-18.3l-11,27.4h-82.6l-10.8-27.4H1328l67.7,164.9H1398.6"/>
		<path id="path134" class="st0" d="M1588.3,178.7l-56.3,71l-18.7-22.6l0.3-48.5h-19.8v165.7h19.8v-78.5c0-5.2-0.4-11.3-0.9-16.2
			c2.7,4.9,6.3,11.4,8.9,14.8l62.1,79.9h22.6l-61.4-80l68-85.8L1588.3,178.7"/>
		<path id="path136" class="st0" d="M1608.9,345.6h-25.7l-0.8-1l-61.7-79.4c-1.8-2.4-4.1-6.2-6.3-10c0.2,3.5,0.4,7.2,0.4,10.6v77.3
			v2.5h-2.5h-17.3h-2.5v-2.5V179.9v-2.5h2.5h17.3h2.5v2.5V227l17.1,20.7l55-69.3l0.8-0.9h1.2h21.4h5.2l-3.2,4.1l-65.8,83l59.3,77.2
			L1608.9,345.6L1608.9,345.6z M1603.8,343.1l-60.5-78.7l67-84.5h-21.4l-56.9,71.8l-19.7-23.8v-48h-17.3v163.2h17.3v-77.3
			c0-7.7-1-17-1.4-22.3c3.6,7,8.6,16.1,11.8,20.2l61.7,79.4H1603.8"/>
		<path id="path138" class="st0" d="M1646.8,178.7l30.8,52.4l-62.4,113.3h22.3l44.8-81.8c2.4-4.1,4.6-9.9,5.9-13.5
			c1.3,3.5,3.6,9.2,5.8,13.4l44.5,81.8h20.8l-61.5-113.2l-30.4-52.5L1646.8,178.7"/>
		<path id="path140" class="st0" d="M1761.5,345.6h-23.7l-0.7-1.3l-44.2-81.1c-1.7-3.2-3.4-7.2-4.7-10.6c-1.3,3.4-3,7.5-4.9,10.6
			l-44.4,81.1l-0.7,1.3h-1.5h-19.4h-4.2l2-3.7l61-110.8l-29.3-49.9l-2.2-3.8h4.4h17.8h1.4l0.7,1.3l30,51.8l60.5,111.4L1761.5,345.6
			L1761.5,345.6z M1757.3,343.1l-60.5-111.4l-30-51.8H1649l30,51.1l-61.7,112.1h19.4l44.4-81.1c3.6-6.2,7-16.6,7-16.6
			s3.6,10.1,7,16.6l44.2,81.1H1757.3"/>
		<path id="path142" class="st0" d="M1849.5,178.7l-4.5,11.5c-13.4,34.3-26.7,68.5-39.9,102.9l-1,2.6c-1.4,3.4-3.1,7.7-4.1,11.5
			c-9.1-29.6-20.9-58.9-32.3-87.3c-5.4-13.5-10.8-26.9-16-40.4l-0.3-0.8h-19l65.7,165.7h4.5l67.1-165.7H1849.5"/>
		<path id="path144" class="st0" d="M1803.4,345.6h-6.1l-0.6-1.6l-64.7-163.2l-1.4-3.4h3.7h16.3h1.7l0.6,1.6
			c5.1,13.5,10.6,27.1,16,40.4c10.9,27.2,22.3,55.2,31.2,83.5c0.9-2.7,2-5.4,2.9-7.7l1-2.6c13.1-34.2,26.4-68.3,39.7-102.4l4.4-11.2
			l0.6-1.6h1.7h17.4h3.7l-1.4,3.4L1804,344.1L1803.4,345.6L1803.4,345.6z M1801.7,343.1l66.1-163.2h-17.4
			c-14.8,37.8-29.5,75.6-44.1,113.6c-1.8,4.8-6,14.1-6,19.2c0,0-0.2-0.7-0.5-1.9c-13.3-44.4-32.7-87.5-49.3-130.9h-16.3l64.7,163.2
			L1801.7,343.1"/>
		<path id="path146" class="st0" d="M1934.2,196.5c32.6,0,49.2,15.1,49.2,44.8s-16.5,44.8-49.2,44.8h-17.5v-89.7H1934.2z
			 M1897,178.7v165.7h19.8v-40.6h18.4c43,0,68.7-23.3,68.7-62.5c0-39.3-25.7-62.7-68.7-62.7H1897"/>
		<path id="path148" class="st0" d="M1918,285h16.2c31.8,0,47.9-14.7,47.9-43.6c0-28.9-16.1-43.6-47.9-43.6H1918V285z M1918,345.6
			h-22.3V177.4h39.5c43.8,0,69.9,23.9,69.9,63.9c0,39.9-26.1,63.7-69.9,63.7H1918v38.1L1918,345.6L1918,345.6z M1915.5,195.3h18.7
			c36.7,0,50.4,19.2,50.4,46.1c0,26.9-13.7,46.1-50.4,46.1h-18.7V195.3 M1915.5,343.1v-40.6h19.7c44.6,0,67.4-25.2,67.4-61.2
			c0-36.7-22.8-61.4-67.4-61.4h-37v163.2H1915.5"/>
		<path id="path150" class="st0" d="M2065.7,178.7v147.9h-50.2v17.9h120.1v-17.9h-50.2V178.7H2065.7"/>
		<path id="path152" class="st0" d="M2136.9,345.6h-122.6v-20.4h50.2V179.9v-2.5h2.5h17.3h2.5v2.5v145.4h47.7h2.5v2.5v15.4V345.6z
			 M2134.4,343.1v-15.4h-50.2V179.9H2067v147.9h-50.2v15.4H2134.4"/>
		<path id="path154" class="st0" d="M2159.9,178.7v165.7h101.9v-17.9h-82.1v-74.1h73.2v-17.6h-73.2v-38.3h85.4v-17.9L2159.9,178.7"
			/>
		<path id="path156" class="st0" d="M2263,345.6h-104.4V177.4h107.7v2.5v15.4v2.5h-2.5H2181v35.8h70.7h2.5v2.5v15.1v2.5h-2.5H2181
			v71.6h79.6h2.5v2.5v15.4C2263,343.1,2263,345.6,2263,345.6z M2260.5,343.1v-15.4h-82.1v-76.6h73.2v-15.1h-73.2v-40.8h85.4v-15.4
			h-102.7v163.2L2260.5,343.1"/>
		<path id="path158" class="st0" d="M2333.9,178.7v147.9h-50.2v17.9h120.1v-17.9h-50.2V178.7H2333.9"/>
		<path id="path160" class="st0" d="M2405.1,345.6h-122.6v-20.4h50.2V179.9v-2.5h2.5h17.3h2.5v2.5v145.4h47.7h2.5v2.5v15.4
			L2405.1,345.6L2405.1,345.6z M2402.6,343.1v-15.4h-50.2V179.9h-17.3v147.9H2285v15.4H2402.6"/>
	</g>
</g>
</svg>
